<svg width="35" height="35" viewBox="0 0 35 35" fill="none" xmlns="http://www.w3.org/2000/svg">
<path d="M4.375 10.3193C4.375 8.43372 4.375 7.49091 4.96079 6.90512C5.54657 6.31934 6.48938 6.31934 8.375 6.31934H12.9265C13.744 6.31934 14.1527 6.31934 14.5203 6.47158C14.8878 6.62382 15.1768 6.91285 15.7549 7.49091L18.9583 10.6943H4.375V10.3193Z" fill="#DCF3F8"/>
<path d="M27.4248 11.667C28.5449 11.667 29.1054 11.6668 29.5332 11.8848C29.9094 12.0765 30.2155 12.3825 30.4072 12.7588C30.6251 13.1865 30.625 13.7466 30.625 14.8662V25.9668C30.625 27.0864 30.625 27.6465 30.4072 28.0742C30.2155 28.4504 29.9094 28.7565 29.5332 28.9482C29.1054 29.1662 28.5449 29.167 27.4248 29.167H7.5752C6.45509 29.167 5.89462 29.1662 5.4668 28.9482C5.09063 28.7565 4.78446 28.4504 4.59277 28.0742C4.37501 27.6465 4.375 27.0864 4.375 25.9668V11.667H27.4248ZM17.5 14.5557C16.9478 14.5558 16.5 15.0035 16.5 15.5557V19.417H12.6387C12.0865 19.4171 11.6387 19.8648 11.6387 20.417C11.6388 20.9691 12.0866 21.4169 12.6387 21.417H16.5V25.2783C16.5003 25.8303 16.948 26.2782 17.5 26.2783C18.052 26.2782 18.4997 25.8303 18.5 25.2783V21.417H22.3613C22.9133 21.4168 23.3612 20.969 23.3613 20.417C23.3613 19.8649 22.9134 19.4172 22.3613 19.417H18.5V15.5557C18.5 15.0035 18.0522 14.5558 17.5 14.5557Z" fill="#DCF3F8"/>
</svg>
