<?xml version="1.0" encoding="UTF-8"?>
<svg id="Layer_1" data-name="Layer 1" xmlns="http://www.w3.org/2000/svg" xmlns:xlink="http://www.w3.org/1999/xlink" viewBox="0 0 1080 1080">
  <defs>
    <style>
      .cls-1 {
        fill: #fff;
      }

      .cls-2 {
        fill: url(#linear-gradient-2);
        opacity: .8;
      }

      .cls-3 {
        fill: #002c49;
      }

      .cls-4 {
        fill: #f5f5f5;
      }

      .cls-5 {
        fill: url(#linear-gradient);
      }
    </style>
    <linearGradient id="linear-gradient" x1="433.06" y1="114.87" x2="732.58" y2="937.77" gradientUnits="userSpaceOnUse">
      <stop offset="0" stop-color="#27d6ff"/>
      <stop offset="1" stop-color="#1767aa"/>
    </linearGradient>
    <linearGradient id="linear-gradient-2" x1="827.06" y1="903.38" x2="527.55" y2="80.48" gradientUnits="userSpaceOnUse">
      <stop offset="0" stop-color="#002c49"/>
      <stop offset="1" stop-color="#002c49" stop-opacity="0"/>
    </linearGradient>
  </defs>
  <path class="cls-1" d="M945.76,236.21l-3.46-24.34-24.07-5c-110.35-22.93-217.87-70.93-359.53-160.51l-18.7-11.82-18.71,11.82c-141.65,89.58-249.17,137.58-359.52,160.51l-24.07,5-3.46,24.34c-14.24,100.14-22.22,250.64,20.61,398.96,25.38,87.91,65.89,165.16,120.4,229.61,64.48,76.24,149.25,135.34,251.96,175.66l12.79,5.02,12.79-5.02c102.7-40.32,187.47-99.42,251.96-175.66,54.51-64.45,95.02-141.7,120.4-229.61,42.83-148.32,34.85-298.82,20.61-398.96ZM896.33,626.84c-24.21,83.83-62.73,157.37-114.49,218.56-61.24,72.41-141.99,128.64-240.01,167.12l-1.83.71-1.83-.71c-98.02-38.48-178.78-94.71-240.02-167.12-51.76-61.19-90.28-134.73-114.48-218.56-41.36-143.21-33.55-289.17-19.73-386.41l.5-3.47,3.43-.72c114.09-23.7,224.58-72.91,369.46-164.52l2.67-1.69,2.67,1.69c144.88,91.62,255.37,140.82,369.45,164.52l3.44.72.5,3.47c13.82,97.24,21.62,243.2-19.73,386.41Z"/>
  <path class="cls-3" d="M540,1029.35l-7.31-2.87c-100.36-39.4-183.13-97.06-245.99-171.39-53.13-62.82-92.65-138.22-117.44-224.08-42.09-145.77-34.2-294-20.17-392.68l1.98-13.91,13.75-2.86c112.21-23.32,221.22-71.92,364.49-162.51l10.69-6.76,10.69,6.76c143.27,90.59,252.27,139.2,364.49,162.51l13.75,2.86,1.98,13.91c14.03,98.68,21.93,246.92-20.17,392.68-24.8,85.87-64.31,161.26-117.44,224.08-62.86,74.33-145.62,131.99-245.99,171.39l-7.31,2.87ZM186.82,257.71c-27.92,214.64-14.46,579.59,353.18,728.61,367.64-149.02,381.1-513.97,353.18-728.61-109.46-24.74-216.57-72.73-353.18-158.14-136.6,85.41-243.72,133.41-353.18,158.14Z"/>
  <path class="cls-5" d="M911.11,241.14c-117.96-24.51-229.79-75.83-371.11-165.19-141.32,89.36-253.15,140.68-371.11,165.19-23.74,166.98-47.74,602.3,371.11,766.72,418.85-164.43,394.85-599.74,371.11-766.72Z"/>
  <path class="cls-2" d="M540,1007.86V75.95c141.31,89.36,253.14,140.68,371.1,165.19,23.75,166.98,47.75,602.3-371.1,766.72Z"/>
  <circle class="cls-4" cx="540" cy="541.9" r="131.49"/>
  <path class="cls-3" d="M540,680.89c-76.64,0-138.99-62.35-138.99-138.99s62.35-138.99,138.99-138.99,138.99,62.35,138.99,138.99-62.35,138.99-138.99,138.99ZM540,417.91c-68.37,0-123.99,55.62-123.99,123.99s55.62,123.99,123.99,123.99,123.99-55.62,123.99-123.99-55.62-123.99-123.99-123.99Z"/>
  <path class="cls-4" d="M842.48,301.72l-.74-5.22-5.16-1.07c-90.26-18.75-177.76-57.73-292.57-130.33l-4.01-2.54-4.01,2.54c-114.81,72.6-202.31,111.58-292.57,130.33l-5.16,1.07-.74,5.22c-11.04,77.65-17.26,194.23,15.79,308.7,19.38,67.12,50.24,126.02,91.72,175.06,49.07,58.02,113.75,103.06,192.23,133.87l2.74,1.08,2.74-1.08c78.49-30.81,143.17-75.85,192.24-133.87,38.69-45.75,68.14-100.08,87.65-161.66l-10.8-10.8c-.26.12-.51.23-.77.34-1.25,4.14-2.55,8.27-3.92,12.39v18.15h-6.36c-39.28,105.36-116.85,203.07-260.78,260.41C235.97,783.19,228.05,481.88,251.65,309.02c89.24-19.31,176.06-58.09,288.35-128.72,112.29,70.63,199.12,109.41,288.35,128.72,6.55,47.97,10.68,105.84,6.72,167l13.51,13.51c6.14-71.46,1.02-137.73-6.1-187.81Z"/>
  <path class="cls-3" d="M578.08,510.79c0-21.03-17.05-38.08-38.08-38.08s-38.08,17.05-38.08,38.08c0,14.32,7.91,26.79,19.6,33.29l-17.36,67.01h71.68l-17.36-67.01c11.69-6.5,19.6-18.97,19.6-33.29Z"/>
  <path class="cls-3" d="M802.14,638.9h-35.54v-27.51c-3.69-1.14-7.28-2.63-10.69-4.45l-19.46,19.46-25.13-25.13,19.46-19.46c-1.82-3.42-3.31-7-4.45-10.69h-27.51v-35.54h27.51c1.14-3.69,2.63-7.28,4.45-10.69l-19.46-19.46,25.12-25.13,19.47,19.46c3.42-1.82,7-3.31,10.69-4.45v-27.51h35.54v27.51c3.69,1.14,7.28,2.63,10.69,4.45l19.46-19.46,25.13,25.13-19.46,19.46c1.82,3.42,3.31,7,4.45,10.69h27.51v35.54h-27.51c-1.14,3.69-2.63,7.28-4.45,10.69l19.46,19.46-25.13,25.13-19.46-19.46c-3.42,1.82-7,3.31-10.69,4.45v27.51ZM784.37,528.2c-13.87,0-25.16,11.29-25.16,25.16s11.29,25.16,25.16,25.16,25.16-11.29,25.16-25.16-11.29-25.16-25.16-25.16Z"/>
  <path class="cls-4" d="M859.91,561.13v-15.54h-25.44c-1.26-8.19-4.5-15.74-9.2-22.14l18.01-18.01-10.98-10.99-18.01,18.01c-6.41-4.7-13.95-7.94-22.14-9.2v-25.44h-15.54v25.44c-8.19,1.26-15.74,4.5-22.14,9.2l-18.01-18.01-10.98,10.99,18.01,18.01c-4.7,6.41-7.94,13.95-9.2,22.14h-25.44v15.54h25.44c1.26,8.19,4.5,15.74,9.2,22.14l-18.01,18.01,10.98,10.98,18.01-18.01c6.41,4.7,13.95,7.94,22.14,9.2v25.44h15.54v-25.44c8.19-1.26,15.74-4.5,22.14-9.2l18.01,18.01,10.98-10.98-18.01-18.01c4.7-6.41,7.94-13.95,9.2-22.14h25.44ZM784.37,588.52c-19.39,0-35.16-15.77-35.16-35.16s15.77-35.16,35.16-35.16,35.16,15.77,35.16,35.16-15.77,35.16-35.16,35.16Z"/>
  <g>
    <rect class="cls-4" x="333.27" y="274.88" width="15" height="79.47"/>
    <rect class="cls-4" x="333.27" y="451.93" width="15" height="126.59"/>
    <rect class="cls-4" x="333.27" y="676.1" width="15" height="92.29"/>
  </g>
  <path class="cls-4" d="M365.73,371.35v63.58c0,3.86-3.15,7-7,7h-35.92c-3.86,0-7-3.14-7-7v-63.58c0-3.86,3.14-7,7-7h35.92c3.85,0,7,3.14,7,7Z"/>
  <path class="cls-4" d="M365.73,595.52v63.58c0,3.86-3.15,7-7,7h-35.92c-3.86,0-7-3.14-7-7v-63.58c0-3.86,3.14-7,7-7h35.92c3.85,0,7,3.14,7,7Z"/>
</svg>