<?xml version="1.0" encoding="UTF-8"?>
<svg id="Layer_1" data-name="Layer 1" xmlns="http://www.w3.org/2000/svg" xmlns:xlink="http://www.w3.org/1999/xlink" viewBox="0 0 1080 1080">
  <defs>
    <style>
      .cls-1 {
        fill: #fff;
      }

      .cls-2 {
        font-family: Montserrat-Bold, Montserrat;
        font-size: 85px;
        font-weight: 700;
      }

      .cls-2, .cls-3 {
        fill: #002c49;
      }

      .cls-4 {
        fill: url(#linear-gradient-2);
        opacity: .8;
      }

      .cls-5 {
        letter-spacing: -.07em;
      }

      .cls-6 {
        letter-spacing: 0em;
      }

      .cls-7 {
        letter-spacing: -.02em;
      }

      .cls-8 {
        fill: #f5f5f5;
      }

      .cls-9 {
        letter-spacing: -.04em;
      }

      .cls-10 {
        fill: url(#linear-gradient);
      }
    </style>
    <linearGradient id="linear-gradient" x1="476.47" y1="197.55" x2="654.41" y2="686.46" gradientUnits="userSpaceOnUse">
      <stop offset="0" stop-color="#27d6ff"/>
      <stop offset="1" stop-color="#1767aa"/>
    </linearGradient>
    <linearGradient id="linear-gradient-2" x1="710.55" y1="666.03" x2="532.6" y2="177.12" gradientUnits="userSpaceOnUse">
      <stop offset="0" stop-color="#002c49"/>
      <stop offset="1" stop-color="#002c49" stop-opacity="0"/>
    </linearGradient>
  </defs>
  <g>
    <path class="cls-1" d="M781.07,269.64l-2.06-14.46-14.3-2.97c-65.56-13.62-129.44-42.14-213.61-95.36l-11.11-7.02-11.12,7.02c-84.16,53.22-148.04,81.74-213.6,95.36l-14.3,2.97-2.06,14.46c-8.46,59.5-13.2,148.91,12.25,237.03,15.08,52.23,39.15,98.13,71.53,136.42,38.31,45.3,88.67,80.41,149.7,104.36l7.6,2.98,7.6-2.98c61.02-23.96,111.38-59.07,149.7-104.36,32.39-38.29,56.45-84.19,71.53-136.42,25.45-88.12,20.71-177.54,12.24-237.03ZM751.71,501.73c-14.38,49.81-37.27,93.5-68.02,129.85-36.38,43.02-84.36,76.43-142.6,99.29l-1.09.42-1.09-.42c-58.24-22.86-106.22-56.27-142.6-99.29-30.75-36.35-53.64-80.05-68.02-129.85-24.57-85.09-19.93-171.8-11.72-229.58l.3-2.06,2.04-.43c67.78-14.08,133.43-43.32,219.51-97.75l1.59-1,1.59,1c86.08,54.43,151.72,83.67,219.5,97.75l2.04.43.3,2.06c8.21,57.77,12.85,144.49-11.72,229.58Z"/>
    <path class="cls-3" d="M540,740.87l-4.34-1.7c-59.63-23.41-108.8-57.67-146.15-101.83-31.57-37.33-55.04-82.12-69.78-133.14-25.01-86.6-20.32-174.67-11.98-233.3l1.17-8.26,8.17-1.7c66.67-13.85,131.43-42.73,216.55-96.55l6.35-4.02,6.35,4.02c85.12,53.82,149.88,82.7,216.55,96.55l8.17,1.7,1.17,8.26c8.34,58.63,13.03,146.7-11.98,233.3-14.73,51.02-38.21,95.81-69.78,133.14-37.35,44.16-86.52,78.42-146.15,101.83l-4.34,1.7ZM330.17,282.42c-16.59,127.53-8.59,344.35,209.83,432.89,218.43-88.54,226.42-305.36,209.83-432.89-65.03-14.7-128.67-43.21-209.83-93.96-81.16,50.74-144.8,79.26-209.83,93.96Z"/>
    <path class="cls-10" d="M760.48,272.57c-70.08-14.56-136.52-45.05-220.48-98.14-83.96,53.09-150.4,83.58-220.48,98.14-14.11,99.21-28.37,357.84,220.48,455.53,248.85-97.69,234.59-356.33,220.48-455.53Z"/>
    <path class="cls-4" d="M540,728.1V174.43c83.96,53.09,150.4,83.58,220.48,98.14,14.11,99.21,28.37,357.84-220.48,455.53Z"/>
    <circle class="cls-8" cx="540" cy="451.27" r="78.12"/>
    <path class="cls-3" d="M540,533.84c-45.53,0-82.58-37.04-82.58-82.58s37.04-82.58,82.58-82.58,82.58,37.04,82.58,82.58-37.04,82.58-82.58,82.58ZM540,377.6c-40.62,0-73.67,33.05-73.67,73.67s33.05,73.67,73.67,73.67,73.67-33.05,73.67-73.67-33.05-73.67-73.67-73.67Z"/>
    <path class="cls-8" d="M719.71,308.57l-.44-3.1-3.07-.64c-53.63-11.14-105.61-34.3-173.82-77.43l-2.38-1.51-2.38,1.51c-68.21,43.13-120.2,66.29-173.82,77.43l-3.07.64-.44,3.1c-6.56,46.13-10.25,115.4,9.38,183.41,11.51,39.88,29.85,74.87,54.49,104.01,29.15,34.47,67.58,61.23,114.21,79.54l1.63.64,1.63-.64c46.63-18.31,85.06-45.06,114.22-79.54,22.99-27.18,40.48-59.46,52.08-96.05l-6.42-6.42c-.15.07-.3.14-.46.2-.74,2.46-1.52,4.91-2.33,7.36v10.78h-3.78c-23.34,62.6-69.42,120.65-154.94,154.72-180.63-71.96-185.34-250.98-171.32-353.68,53.02-11.47,104.6-34.51,171.32-76.48,66.71,41.96,118.3,65,171.32,76.48,3.89,28.5,6.35,62.88,3.99,99.22l8.03,8.03c3.65-42.46.61-81.83-3.62-111.58Z"/>
    <path class="cls-3" d="M562.62,432.78c0-12.5-10.13-22.62-22.62-22.62s-22.62,10.13-22.62,22.62c0,8.51,4.7,15.92,11.64,19.78l-10.31,39.81h42.59l-10.31-39.81c6.94-3.86,11.64-11.27,11.64-19.78Z"/>
    <path class="cls-3" d="M695.74,508.9h-21.11v-16.34c-2.19-.67-4.32-1.56-6.35-2.64l-11.56,11.56-14.93-14.93,11.56-11.56c-1.08-2.03-1.97-4.16-2.64-6.35h-16.34v-21.11h16.34c.67-2.19,1.56-4.32,2.64-6.35l-11.56-11.56,14.93-14.93,11.57,11.56c2.03-1.08,4.16-1.97,6.35-2.64v-16.34h21.11v16.34c2.19.68,4.32,1.56,6.35,2.64l11.56-11.56,14.93,14.93-11.56,11.56c1.08,2.03,1.97,4.16,2.64,6.35h16.34v21.11h-16.34c-.67,2.19-1.56,4.32-2.64,6.35l11.56,11.56-14.93,14.93-11.56-11.56c-2.03,1.08-4.16,1.97-6.35,2.64v16.34ZM685.19,443.12c-8.24,0-14.95,6.71-14.95,14.95s6.71,14.95,14.95,14.95,14.95-6.71,14.95-14.95-6.71-14.95-14.95-14.95Z"/>
    <path class="cls-8" d="M730.07,462.69v-9.23h-15.12c-.75-4.87-2.68-9.35-5.47-13.16l10.7-10.7-6.53-6.53-10.7,10.7c-3.81-2.79-8.29-4.72-13.16-5.47v-15.12h-9.23v15.12c-4.87.75-9.35,2.68-13.16,5.47l-10.7-10.7-6.53,6.53,10.7,10.7c-2.79,3.81-4.72,8.29-5.47,13.16h-15.12v9.23h15.12c.75,4.87,2.68,9.35,5.47,13.16l-10.7,10.7,6.53,6.53,10.7-10.7c3.81,2.79,8.29,4.72,13.16,5.47v15.12h9.23v-15.12c4.87-.75,9.35-2.68,13.16-5.47l10.7,10.7,6.53-6.53-10.7-10.7c2.79-3.81,4.72-8.29,5.47-13.16h15.12ZM685.19,478.96c-11.52,0-20.89-9.37-20.89-20.89s9.37-20.89,20.89-20.89,20.89,9.37,20.89,20.89-9.37,20.89-20.89,20.89Z"/>
    <g>
      <rect class="cls-8" x="417.18" y="292.62" width="8.91" height="47.22"/>
      <rect class="cls-8" x="417.18" y="397.81" width="8.91" height="75.21"/>
      <rect class="cls-8" x="417.18" y="531" width="8.91" height="54.83"/>
    </g>
    <rect class="cls-8" x="406.8" y="345.78" width="29.66" height="46.09" rx="4.16" ry="4.16"/>
    <rect class="cls-8" x="406.8" y="478.96" width="29.66" height="46.09" rx="4.16" ry="4.16"/>
  </g>
  <text class="cls-2" transform="translate(78.33 865.58)"><tspan class="cls-9" x="0" y="0">V</tspan><tspan class="cls-7" x="60.18" y="0">A</tspan><tspan x="124.01" y="0">U</tspan><tspan class="cls-5" x="190.99" y="0">L</tspan><tspan x="235.96" y="0">T OF </tspan><tspan class="cls-6" x="462.65" y="0">E</tspan><tspan class="cls-7" x="518.83" y="0">V</tspan><tspan x="580.97" y="0">IDENCE</tspan></text>
</svg>