<?xml version="1.0" encoding="UTF-8"?>
<svg id="Layer_1" data-name="Layer 1" xmlns="http://www.w3.org/2000/svg" xmlns:xlink="http://www.w3.org/1999/xlink" viewBox="0 0 2985.7 667.55">
  <defs>
    <style>
      .cls-1 {
        letter-spacing: -.01em;
      }

      .cls-2 {
        fill: #fff;
      }

      .cls-3 {
        letter-spacing: -.04em;
      }

      .cls-4 {
        letter-spacing: -.07em;
      }

      .cls-5 {
        fill: url(#linear-gradient-2);
        opacity: .8;
      }

      .cls-6 {
        font-family: Montserrat-Medium, Montserrat;
        font-size: 120px;
        font-weight: 500;
      }

      .cls-6, .cls-7, .cls-8 {
        fill: #f5f5f5;
      }

      .cls-7 {
        font-family: Montserrat-Bold, Montserrat;
        font-size: 200px;
        font-weight: 700;
      }

      .cls-9 {
        letter-spacing: .04em;
      }

      .cls-10 {
        fill: #002c49;
      }

      .cls-11 {
        letter-spacing: 0em;
      }

      .cls-12 {
        fill: url(#linear-gradient);
      }

      .cls-13 {
        letter-spacing: .03em;
      }
    </style>
    <linearGradient id="linear-gradient" x1="260.14" y1="80.74" x2="428.59" y2="543.55" gradientUnits="userSpaceOnUse">
      <stop offset="0" stop-color="#27d6ff"/>
      <stop offset="1" stop-color="#1767aa"/>
    </linearGradient>
    <linearGradient id="linear-gradient-2" x1="481.73" y1="524.21" x2="313.28" y2="61.4" gradientUnits="userSpaceOnUse">
      <stop offset="0" stop-color="#002c49"/>
      <stop offset="1" stop-color="#002c49" stop-opacity="0"/>
    </linearGradient>
  </defs>
  <g>
    <path class="cls-2" d="M548.49,148.99l-1.95-13.69-13.54-2.81c-62.06-12.9-122.53-39.89-202.2-90.27l-10.52-6.65-10.52,6.65c-79.67,50.38-140.14,77.38-202.2,90.27l-13.54,2.81-1.95,13.69c-8.01,56.32-12.5,140.96,11.59,224.38,14.27,49.44,37.06,92.89,67.71,129.14,36.26,42.88,83.94,76.12,141.71,98.79l7.19,2.82,7.19-2.82c57.76-22.68,105.44-55.92,141.71-98.79,30.66-36.25,53.44-79.69,67.71-129.14,24.09-83.42,19.6-168.06,11.59-224.38ZM520.69,368.68c-13.62,47.15-35.28,88.51-64.39,122.92-34.44,40.72-79.86,72.35-134.98,93.99l-1.03.4-1.03-.4c-55.13-21.64-100.55-53.27-134.99-93.99-29.11-34.41-50.77-75.77-64.39-122.92-23.26-80.54-18.87-162.63-11.1-217.32l.28-1.95,1.93-.4c64.17-13.33,126.31-41.01,207.79-92.53l1.5-.95,1.5.95c81.48,51.53,143.62,79.2,207.78,92.53l1.93.4.28,1.95c7.77,54.69,12.16,136.78-11.1,217.32Z"/>
    <path class="cls-10" d="M320.28,595.06l-4.11-1.61c-56.45-22.16-102.99-54.59-138.35-96.39-29.88-35.33-52.11-77.74-66.05-126.03-23.67-81.98-19.23-165.35-11.34-220.85l1.11-7.82,7.74-1.61c63.11-13.11,124.42-40.45,204.99-91.4l6.01-3.8,6.01,3.8c80.58,50.95,141.88,78.29,204.99,91.4l7.74,1.61,1.11,7.82c7.89,55.5,12.33,138.87-11.34,220.85-13.95,48.29-36.17,90.7-66.05,126.03-35.35,41.8-81.9,74.23-138.35,96.39l-4.11,1.61ZM121.65,161.08c-15.7,120.72-8.13,325.97,198.63,409.78,206.77-83.81,214.34-289.06,198.63-409.78-61.56-13.91-121.8-40.91-198.63-88.94-76.83,48.04-137.07,75.03-198.63,88.94Z"/>
    <path class="cls-12" d="M529,151.76c-66.34-13.79-129.24-42.65-208.72-92.91-79.48,50.26-142.37,79.12-208.72,92.91-13.35,93.91-26.85,338.74,208.72,431.22,235.57-92.48,222.07-337.3,208.72-431.22Z"/>
    <path class="cls-5" d="M320.28,582.97V58.85c79.47,50.26,142.37,79.12,208.71,92.91,13.36,93.91,26.86,338.74-208.71,431.21Z"/>
    <circle class="cls-8" cx="320.28" cy="320.91" r="73.95"/>
    <path class="cls-10" d="M320.28,399.08c-43.1,0-78.17-35.07-78.17-78.17s35.07-78.17,78.17-78.17,78.17,35.07,78.17,78.17-35.07,78.17-78.17,78.17ZM320.28,251.18c-38.45,0-69.73,31.28-69.73,69.73s31.28,69.73,69.73,69.73,69.73-31.28,69.73-69.73-31.28-69.73-69.73-69.73Z"/>
    <path class="cls-8" d="M490.4,185.83l-.42-2.94-2.9-.6c-50.76-10.55-99.97-32.47-164.55-73.3l-2.26-1.43-2.26,1.43c-64.57,40.83-113.78,62.75-164.55,73.3l-2.9.6-.42,2.94c-6.21,43.67-9.71,109.24,8.88,173.62,10.9,37.75,28.26,70.88,51.58,98.46,27.6,32.63,63.97,57.96,108.11,75.29l1.54.61,1.54-.61c44.14-17.33,80.52-42.66,108.12-75.29,21.76-25.73,38.32-56.29,49.3-90.92l-6.07-6.07c-.15.07-.29.13-.43.19-.7,2.33-1.43,4.65-2.2,6.97v10.21h-3.58c-22.09,59.26-65.72,114.21-146.67,146.46-170.99-68.12-175.44-237.58-162.17-334.8,50.19-10.86,99.02-32.67,162.17-72.39,63.15,39.72,111.99,61.53,162.17,72.39,3.68,26.98,6.01,59.53,3.78,93.92l7.6,7.6c3.45-40.19.57-77.46-3.43-105.63Z"/>
    <path class="cls-10" d="M341.7,303.42c0-11.83-9.59-21.42-21.42-21.42s-21.42,9.59-21.42,21.42c0,8.05,4.45,15.07,11.02,18.72l-9.76,37.69h40.31l-9.76-37.69c6.57-3.66,11.02-10.67,11.02-18.72Z"/>
    <path class="cls-10" d="M467.71,375.47h-19.99v-15.47c-2.08-.64-4.09-1.48-6.01-2.5l-10.95,10.95-14.13-14.13,10.95-10.95c-1.02-1.92-1.86-3.94-2.5-6.01h-15.47v-19.99h15.47c.64-2.08,1.48-4.09,2.5-6.01l-10.95-10.95,14.13-14.13,10.95,10.95c1.92-1.02,3.94-1.86,6.01-2.5v-15.47h19.99v15.47c2.08.64,4.09,1.48,6.01,2.5l10.95-10.95,14.13,14.13-10.95,10.95c1.02,1.92,1.86,3.94,2.5,6.01h15.47v19.99h-15.47c-.64,2.08-1.48,4.09-2.5,6.01l10.95,10.95-14.13,14.13-10.95-10.95c-1.92,1.02-3.94,1.86-6.01,2.5v15.47ZM457.72,313.21c-7.8,0-14.15,6.35-14.15,14.15s6.35,14.15,14.15,14.15,14.15-6.35,14.15-14.15-6.35-14.15-14.15-14.15Z"/>
    <path class="cls-8" d="M500.2,331.72v-8.74h-14.31c-.71-4.61-2.53-8.85-5.18-12.45l10.13-10.13-6.18-6.18-10.13,10.13c-3.6-2.64-7.85-4.47-12.45-5.18v-14.31h-8.74v14.31c-4.61.71-8.85,2.53-12.45,5.18l-10.13-10.13-6.18,6.18,10.13,10.13c-2.64,3.6-4.46,7.85-5.18,12.45h-14.31v8.74h14.31c.71,4.61,2.53,8.85,5.18,12.45l-10.13,10.13,6.18,6.18,10.13-10.13c3.6,2.64,7.85,4.47,12.45,5.18v14.31h8.74v-14.31c4.61-.71,8.85-2.53,12.45-5.18l10.13,10.13,6.18-6.18-10.13-10.13c2.64-3.6,4.47-7.85,5.18-12.45h14.31ZM457.72,347.13c-10.9,0-19.77-8.87-19.77-19.77s8.87-19.78,19.77-19.78,19.77,8.87,19.77,19.78-8.87,19.77-19.77,19.77Z"/>
    <g>
      <rect class="cls-8" x="204.01" y="170.73" width="8.44" height="44.7"/>
      <rect class="cls-8" x="204.01" y="270.31" width="8.44" height="71.2"/>
      <rect class="cls-8" x="204.01" y="396.39" width="8.44" height="51.91"/>
    </g>
    <rect class="cls-8" x="194.19" y="221.05" width="28.08" height="43.63" rx="3.94" ry="3.94"/>
    <rect class="cls-8" x="194.19" y="347.13" width="28.08" height="43.63" rx="3.94" ry="3.94"/>
  </g>
  <g>
    <text class="cls-7" transform="translate(675.01 346.24)"><tspan class="cls-3" x="0" y="0">V</tspan><tspan class="cls-1" x="141.6" y="0">A</tspan><tspan x="291.8" y="0">U</tspan><tspan class="cls-4" x="449.4" y="0">L</tspan><tspan x="555.19" y="0">T OF </tspan><tspan class="cls-11" x="1088.59" y="0">E</tspan><tspan class="cls-1" x="1220.79" y="0">V</tspan><tspan x="1366.98" y="0">IDENCE</tspan></text>
    <text class="cls-6" transform="translate(684.01 496.88)"><tspan class="cls-13" x="0" y="0">W</tspan><tspan class="cls-9" x="138.12" y="0">HERE FINDINGS L</tspan><tspan class="cls-13" x="1303.19" y="0">IV</tspan><tspan class="cls-9" x="1431.83" y="0">E</tspan></text>
  </g>
</svg>